# xmcd
#
# Track frame offsets: 
#        150
#        12845
#        26515
#
# Disc length: 641 seconds
#
# Revision: 0
# Processed by: cddbd v1.4PL0 Copyright (c) Steve Scherf et al.
# Submitted via: ExactAudioCopy v0.95a1
#
DISCID=16027f03
DTITLE=Faith Hill - Wild One
DYEAR=1993
DGENRE=Country
TTITLE0=Wild One
TTITLE1=Go The Distance
TTITLE2=I Would Be Stronger Than That
EXTD=
EXTT0=
EXTT1=
EXTT2=
PLAYORDER=
